<svg version="1.1" xmlns="http://www.w3.org/2000/svg" width="16" height="16" viewBox="0 0 33 42"><path d="M12 17.25v13.5c0 0.422-0.328 0.75-0.75 0.75h-1.5c-0.422 0-0.75-0.328-0.75-0.75v-13.5c0-0.422 0.328-0.75 0.75-0.75h1.5c0.422 0 0.75 0.328 0.75 0.75zM18 17.25v13.5c0 0.422-0.328 0.75-0.75 0.75h-1.5c-0.422 0-0.75-0.328-0.75-0.75v-13.5c0-0.422 0.328-0.75 0.75-0.75h1.5c0.422 0 0.75 0.328 0.75 0.75zM24 17.25v13.5c0 0.422-0.328 0.75-0.75 0.75h-1.5c-0.422 0-0.75-0.328-0.75-0.75v-13.5c0-0.422 0.328-0.75 0.75-0.75h1.5c0.422 0 0.75 0.328 0.75 0.75zM27 34.219v-22.219h-21v22.219c0 1.125 0.633 1.781 0.75 1.781h19.5c0.117 0 0.75-0.656 0.75-1.781zM11.25 9h10.5l-1.125-2.742c-0.070-0.094-0.281-0.234-0.398-0.258h-7.43c-0.141 0.023-0.328 0.164-0.398 0.258zM33 9.75v1.5c0 0.422-0.328 0.75-0.75 0.75h-2.25v22.219c0 2.578-1.688 4.781-3.75 4.781h-19.5c-2.063 0-3.75-2.109-3.75-4.688v-22.313h-2.25c-0.422 0-0.75-0.328-0.75-0.75v-1.5c0-0.422 0.328-0.75 0.75-0.75h7.242l1.641-3.914c0.469-1.148 1.875-2.086 3.117-2.086h7.5c1.242 0 2.648 0.937 3.117 2.086l1.641 3.914h7.242c0.422 0 0.75 0.328 0.75 0.75z"></path></svg>